<svg height="200" viewBox="0 0 1027 1024" width="200.585938" xmlns="http://www.w3.org/2000/svg"><path d="m1015.533 507.767c0 280.434-227.354 507.766-507.789 507.766-280.434 0-507.744-227.332-507.744-507.766 0-280.435 227.31-507.767 507.744-507.767 280.435 0 507.789 227.332 507.789 507.767z" fill="#e2e5e8"/><path d="m690.962 825.593c0 17.156-13.912 31.069-31.078 31.069h-501.751c-17.123 0-31.036-13.913-31.036-31.069v-635.707c0-17.167 13.913-31.069 31.036-31.069h501.751c17.166 0 31.078 13.902 31.078 31.069z" fill="#94d2e3"/><path d="m659.884 862.142h-501.751c-20.141 0-36.515-16.396-36.515-36.549v-635.707c0-20.152 16.374-36.548 36.515-36.548h501.751c20.163 0 36.558 16.396 36.558 36.548v635.707c0 20.152-16.395 36.549-36.558 36.549zm-501.751-697.846c-14.084 0-25.557 11.484-25.557 25.589v635.707c0 14.106 11.473 25.59 25.557 25.59h501.751c14.104 0 25.599-11.483 25.599-25.59v-635.706c0-14.105-11.494-25.589-25.599-25.589h-501.751z" fill="#1d305b"/><path d="m180.692 209.963h456.632v580.817h-456.632z" fill="#fff"/><path d="m529.32 125.481h-64.126c0-31.014-25.171-56.164-56.164-56.164-31.036 0-56.165 25.15-56.165 56.164h-64.169c-17.124 0-31.036 13.913-31.036 31.068v70.301h302.738v-70.301c.001-17.155-13.912-31.068-31.078-31.068z" fill="#deded2"/><path d="m565.878 232.329h-313.697v-75.78c0-20.152 16.374-36.548 36.516-36.548h58.925c2.783-31.432 29.259-56.164 61.409-56.164 32.148 0 58.625 24.732 61.407 56.164h58.882c20.163 0 36.559 16.396 36.559 36.548v75.78zm-302.738-10.958h291.779v-64.821c0-14.105-11.495-25.589-25.6-25.589h-69.605v-5.479c0-27.943-22.731-50.685-50.685-50.685s-50.686 22.742-50.686 50.685v5.479h-69.648c-14.084 0-25.557 11.484-25.557 25.589v64.821z" fill="#1d305b"/><path d="m434.586 114.062c0 14.127-11.431 25.577-25.556 25.577-14.127 0-25.6-11.45-25.6-25.577s11.473-25.578 25.6-25.578c14.126 0 25.556 11.451 25.556 25.578z" fill="#fff"/><path d="m409.03 145.119c-17.145 0-31.079-13.934-31.079-31.057s13.934-31.058 31.079-31.058c17.123 0 31.036 13.935 31.036 31.058s-13.913 31.057-31.036 31.057zm0-51.156c-11.087 0-20.12 9.012-20.12 20.099s9.033 20.098 20.12 20.098c11.065 0 20.077-9.01 20.077-20.098 0-11.087-9.012-20.099-20.077-20.099z" fill="#1d305b"/><path d="m227.289 301.282h363.461v52.964h-363.461zm0 122.378h363.461v52.963h-363.461zm0 122.377h363.461v52.964h-363.461zm0 122.376h268.513v52.965h-268.513z" fill="#b9bab1"/><path d="m823.667 773.251v-439.553h-32.877v405.713z" fill="#deded2"/><path d="m829.147 786.756-43.836-45.119v-413.418h43.836zm-32.877-49.571 21.918 22.561v-420.568h-21.918z" fill="#1d305b"/><path d="m856.522 737.655 34.332 34.098.471-1.071v-436.984h-34.803z" fill="#deded2"/><path d="m893.123 780.195-6.122-4.559-35.959-35.702v-411.715h45.762l-.471 444.667zm-31.122-44.818 23.844 23.683v-419.882h-23.844z" fill="#1d305b"/><path d="m856.522 737.655v-403.957h-32.855v439.553z" fill="#6aba8d"/><path d="m823.667 778.73a5.403 5.403 0 0 1 -1.991-.375 5.492 5.492 0 0 1 -3.488-5.104v-439.553a5.482 5.482 0 0 1 5.479-5.479h32.854a5.482 5.482 0 0 1 5.479 5.479v403.957a5.417 5.417 0 0 1 -1.456 3.714l-32.854 35.595a5.463 5.463 0 0 1 -4.023 1.766zm5.48-439.552v420.052l21.896-23.715v-396.337z" fill="#1d305b"/><path d="m790.79 333.698h-30.971v436.984l.172.395 30.799-31.666z" fill="#6aba8d"/><path d="m759.991 776.557c-.321 0-.664-.031-.984-.085a5.5 5.5 0 0 1 -4.046-3.221l-.171-.397a5.404 5.404 0 0 1 -.45-2.172v-436.984a5.483 5.483 0 0 1 5.479-5.479h30.972a5.482 5.482 0 0 1 5.479 5.479v405.713a5.531 5.531 0 0 1 -1.541 3.82l-30.801 31.668a5.533 5.533 0 0 1 -3.937 1.658zm5.307-437.379v418.587l20.013-20.58v-398.007z" fill="#1d305b"/><path d="m829.189 148.083h-7.234c-34.31 0-62.136 27.814-62.136 62.125v91.073h131.506v-91.073c0-34.31-27.826-62.125-62.136-62.125z" fill="#e56760"/><path d="m891.325 306.761h-131.506a5.483 5.483 0 0 1 -5.479-5.479v-91.073c0-37.275 30.329-67.604 67.615-67.604h7.234c37.286 0 67.615 30.329 67.615 67.604v91.073a5.482 5.482 0 0 1 -5.479 5.479zm-126.027-10.959h120.547v-85.594c0-31.239-25.406-56.646-56.656-56.646h-7.234c-31.25 0-56.656 25.407-56.656 56.646v85.594z" fill="#1d305b"/><path d="m759.819 333.698h131.506v-32.416h-131.506z" fill="#deded2"/><g fill="#1d305b"><path d="m896.804 339.178h-142.465v-43.375h142.465zm-131.506-10.959h120.547v-21.458h-120.547z"/><path d="m826.685 920.455 27.525-63.793h-56.013z"/><path d="m826.685 925.935a5.488 5.488 0 0 1 -5.009-3.241l-28.488-63.795a5.531 5.531 0 0 1 .406-5.224 5.486 5.486 0 0 1 4.603-2.492h56.014c1.841 0 3.575.931 4.58 2.472a5.504 5.504 0 0 1 .45 5.18l-27.526 63.795a5.473 5.473 0 0 1 -4.986 3.306zm-20.034-63.793 19.948 44.681 19.286-44.681z"/></g><path d="m823.667 773.251-32.877-33.84-30.799 31.666 38.206 85.585h56.013l36.644-84.909-34.332-34.098z" fill="#e5d970"/><path d="m854.21 862.142h-56.014a5.489 5.489 0 0 1 -5.009-3.243l-38.206-85.584c-.898-2.055-.492-4.451 1.07-6.058l30.8-31.666a5.535 5.535 0 0 1 3.938-1.659c1.477 0 2.89.599 3.938 1.659l28.831 29.687 28.938-31.335a5.48 5.48 0 0 1 3.896-1.767c1.478.15 2.932.536 3.981 1.595l34.332 34.097a5.46 5.46 0 0 1 1.177 6.058l-36.644 84.909a5.475 5.475 0 0 1 -5.028 3.307zm-52.461-10.959h48.866l33.731-78.179-27.653-27.45-29.003 31.41a5.462 5.462 0 0 1 -3.96 1.767c-1.069.417-2.932-.579-4.003-1.659l-28.938-29.795-24.272 24.957z" fill="#1d305b"/></svg>